<svg width="18" height="18" viewBox="0 0 18 18" fill="none" xmlns="http://www.w3.org/2000/svg">
<g clip-path="url(#clip0_5318_649)">
<path d="M18 7.97832V10.0216C18 10.5391 17.579 10.9601 17.0615 10.9601H15.6809C15.5406 11.4384 15.349 11.9003 15.1095 12.3375L16.0864 13.3143C16.4522 13.6802 16.4522 14.2756 16.0864 14.6415L14.6416 16.0864C14.6331 16.0948 14.6245 16.1031 14.6158 16.1112C14.5639 16.1594 14.4956 16.1862 14.4246 16.1861C14.3681 16.1862 14.3129 16.1691 14.2661 16.1373C14.2194 16.1054 14.1834 16.0602 14.1627 16.0076C14.1421 15.955 14.1378 15.8973 14.1504 15.8422C14.163 15.7871 14.1919 15.737 14.2334 15.6986C14.2369 15.6953 14.2404 15.692 14.2438 15.6886L15.6886 14.2437C15.8352 14.0972 15.8352 13.8586 15.6886 13.7121L14.5603 12.5837C14.5162 12.5396 14.488 12.4822 14.4802 12.4203C14.4723 12.3585 14.4852 12.2958 14.5169 12.2421C14.8177 11.7317 15.0458 11.1818 15.1945 10.6083C15.2101 10.548 15.2453 10.4945 15.2946 10.4564C15.3439 10.4182 15.4045 10.3975 15.4668 10.3975H17.0615C17.2688 10.3975 17.4375 10.2289 17.4375 10.0216V7.97829C17.4375 7.77101 17.2688 7.60236 17.0615 7.60236H15.4668C15.4045 7.60236 15.3439 7.58166 15.2946 7.54352C15.2454 7.50538 15.2102 7.45196 15.1945 7.39164C15.0458 6.81813 14.8177 6.2682 14.5169 5.75778C14.4852 5.70408 14.4723 5.64138 14.4802 5.57954C14.488 5.5177 14.5162 5.46022 14.5603 5.41614L15.6887 4.28783C15.8352 4.14123 15.8352 3.9027 15.6886 3.75613L14.2438 2.31131C14.1733 2.24079 14.0789 2.20198 13.9779 2.20198C13.877 2.20198 13.7826 2.24079 13.7121 2.31131L12.5838 3.43965C12.5397 3.48373 12.4822 3.51191 12.4204 3.51977C12.3585 3.52763 12.2958 3.51472 12.2421 3.48307C11.7317 3.18218 11.1818 2.9541 10.6083 2.80543C10.548 2.78981 10.4946 2.75459 10.4564 2.70531C10.4183 2.65603 10.3976 2.59547 10.3976 2.53315V0.938461C10.3976 0.73118 10.2289 0.5625 10.0216 0.5625H7.97832C7.77104 0.5625 7.6024 0.73118 7.6024 0.938461V2.53318C7.6024 2.59549 7.58171 2.65603 7.54357 2.70531C7.50544 2.75458 7.45202 2.7898 7.39171 2.80543C6.81819 2.95414 6.26826 3.18224 5.75786 3.48311C5.70414 3.51474 5.64145 3.52764 5.57961 3.51978C5.51778 3.51192 5.4603 3.48375 5.41621 3.43969L4.28787 2.31135C4.21738 2.24082 4.12295 2.20201 4.02198 2.20201C3.92101 2.20201 3.82665 2.24082 3.75616 2.31131L2.31131 3.75616C2.16471 3.90273 2.16471 4.14127 2.31131 4.2879L3.43965 5.41617C3.48373 5.46025 3.51191 5.51772 3.51977 5.57955C3.52764 5.64138 3.51474 5.70408 3.48311 5.75778C3.1822 6.26817 2.9541 6.81811 2.80543 7.39164C2.78981 7.45197 2.75459 7.5054 2.70531 7.54355C2.65603 7.58169 2.59547 7.6024 2.53315 7.6024H0.938461C0.73118 7.6024 0.5625 7.77104 0.5625 7.97832V10.0216C0.5625 10.2289 0.73118 10.3976 0.938461 10.3976H2.53318C2.5955 10.3976 2.65604 10.4183 2.70532 10.4564C2.75459 10.4945 2.78981 10.548 2.80543 10.6083C2.95415 11.1818 3.18225 11.7317 3.48311 12.2421C3.51475 12.2958 3.52766 12.3585 3.5198 12.4204C3.51195 12.4822 3.48376 12.5397 3.43969 12.5838L2.31135 13.7121C2.16475 13.8587 2.16475 14.0972 2.31135 14.2438L3.7562 15.6886C3.75996 15.6924 3.76323 15.6956 3.76657 15.6986C3.82014 15.7496 3.85148 15.8197 3.8538 15.8936C3.85611 15.9675 3.82922 16.0394 3.77895 16.0936C3.72867 16.1478 3.65905 16.1801 3.58517 16.1834C3.51129 16.1867 3.43908 16.1607 3.38418 16.1112C3.37524 16.1029 3.36647 16.0945 3.35788 16.0858L1.91359 14.6416C1.54772 14.2757 1.54772 13.6802 1.91359 13.3143L2.89044 12.3375C2.65096 11.9003 2.4594 11.4385 2.31908 10.9601H0.938461C0.421031 10.9601 0 10.5391 0 10.0216V7.97836C0 7.46089 0.421031 7.03993 0.938461 7.03993H2.31908C2.45939 6.56156 2.65097 6.09974 2.89048 5.66251L1.91363 4.6857C1.54775 4.31975 1.54775 3.72435 1.91363 3.35844L3.35848 1.91363C3.53521 1.73693 3.77086 1.63955 4.02205 1.63955C4.27324 1.63955 4.50893 1.73689 4.68566 1.91363L5.66251 2.89048C6.09975 2.651 6.56156 2.45943 7.03993 2.31912V0.938461C7.0399 0.420996 7.46089 0 7.97832 0H10.0216C10.5391 0 10.9601 0.420996 10.9601 0.938461V2.31908C11.4384 2.45939 11.9003 2.65097 12.3375 2.89048L13.3143 1.91363C13.4911 1.73689 13.7268 1.63955 13.9779 1.63955C14.2291 1.63955 14.4648 1.73693 14.6415 1.91366L16.0864 3.35844C16.4522 3.72435 16.4522 4.31975 16.0864 4.68566L15.1095 5.66248C15.349 6.09972 15.5406 6.56155 15.6809 7.03993H17.0615C17.579 7.0399 18 7.46089 18 7.97832ZM12.4246 11.9329C12.4733 11.9698 12.5328 11.9897 12.5938 11.9897C12.6374 11.9897 12.6804 11.9796 12.7194 11.9602C12.7584 11.9408 12.7923 11.9126 12.8186 11.8778C13.4484 11.0434 13.7813 10.0482 13.7813 9C13.7813 6.3636 11.6364 4.21871 9 4.21871C6.3636 4.21871 4.21871 6.3636 4.21871 9C4.21871 10.0482 4.55164 11.0434 5.18143 11.8778C5.22637 11.9374 5.29312 11.9766 5.36699 11.9869C5.44087 11.9973 5.51582 11.9778 5.57536 11.9329C5.6349 11.8879 5.67415 11.8212 5.68447 11.7473C5.6948 11.6734 5.67535 11.5985 5.63041 11.5389C5.07484 10.8028 4.78121 9.92489 4.78121 8.99996C4.78121 6.67371 6.67375 4.78118 9 4.78118C11.3263 4.78118 13.2188 6.67375 13.2188 9C13.2188 9.92493 12.9251 10.8029 12.3696 11.539C12.3247 11.5985 12.3052 11.6735 12.3155 11.7473C12.3259 11.8212 12.3651 11.888 12.4246 11.9329ZM12.9909 12.8376C13.5029 13.3945 13.7848 14.1155 13.7848 14.8677V17.7188C13.7848 17.7933 13.7552 17.8649 13.7024 17.9176C13.6497 17.9704 13.5781 18 13.5036 18H4.49645C4.42186 18 4.35032 17.9704 4.29758 17.9176C4.24483 17.8649 4.2152 17.7933 4.2152 17.7188V14.8677C4.2152 14.1155 4.49715 13.3945 5.00906 12.8376C5.5177 12.2842 6.20634 11.9423 6.94811 11.8749C7.07389 11.8632 7.19248 11.9377 7.23695 12.0563L7.74865 13.4226L8.12943 14.4223L8.32876 13.3662L7.73863 12.2779C7.71539 12.235 7.70369 12.1869 7.70466 12.1382C7.70563 12.0894 7.71925 12.0418 7.74419 11.9999C7.76912 11.958 7.8045 11.9234 7.84687 11.8993C7.88925 11.8752 7.93715 11.8626 7.98588 11.8626H10.0141C10.0628 11.8626 10.1107 11.8752 10.1531 11.8993C10.1955 11.9234 10.2308 11.958 10.2558 11.9999C10.2807 12.0418 10.2943 12.0894 10.2953 12.1382C10.2963 12.1869 10.2846 12.235 10.2613 12.2779L9.6712 13.3662L9.87054 14.4223L10.2519 13.421L10.763 12.0563C10.7846 11.9986 10.8246 11.9496 10.8768 11.9168C10.9289 11.884 10.9905 11.8693 11.0518 11.8749C11.7937 11.9423 12.4823 12.2842 12.9909 12.8376ZM8.67593 17.4375L7.22243 13.6213L6.78881 12.4636C5.64543 12.6707 4.7777 13.6881 4.7777 14.8677V17.4375H8.67593ZM9 16.708L9.48783 15.4272L9.09995 13.3723C9.08796 13.3087 9.09824 13.243 9.12906 13.1861L9.54169 12.4251H8.45831L8.87094 13.1861C8.90176 13.243 8.91204 13.3087 8.90005 13.3723L8.51217 15.4272L9 16.708ZM13.2223 14.8677C13.2223 13.6881 12.3546 12.6707 11.2112 12.4636L10.7782 13.6198L9.32407 17.4375H13.2223V14.8677ZM9 6.44484C10.4292 6.44484 11.5919 7.60757 11.5919 9.03681C11.5919 10.4661 10.4292 11.6287 9 11.6287C7.57079 11.6287 6.40803 10.466 6.40803 9.03677C6.40803 7.60753 7.57079 6.44484 9 6.44484ZM9 7.00734C7.88098 7.00734 6.97053 7.91775 6.97053 9.03681C6.97053 10.1559 7.88098 11.0662 9 11.0662C10.119 11.0662 11.0294 10.1558 11.0294 9.03677C11.0294 7.91771 10.119 7.00734 9 7.00734Z" fill="white" fill-opacity="0.7"/>
</g>
<defs>
<clipPath id="clip0_5318_649">
<rect width="18" height="18" fill="white"/>
</clipPath>
</defs>
</svg>
