<svg width="24" height="24" viewBox="0 0 24 24" fill="none" xmlns="http://www.w3.org/2000/svg">
<rect width="24" height="24" rx="12" fill="#E354D4"/>
<g clip-path="url(#clip0_144_4051)">
<path d="M17.625 10.6406C17.712 10.6406 17.7954 10.606 17.857 10.5445C17.9185 10.4829 17.9531 10.3995 17.9531 10.3125V9C17.9531 8.91299 17.9185 8.82956 17.857 8.76804C17.7954 8.70651 17.712 8.67192 17.625 8.67188H17.2031V7.96875C17.2029 7.71525 17.1205 7.46865 16.9685 7.26585C16.8164 7.06305 16.6027 6.91496 16.3594 6.84375V6.375C16.3594 6.28798 16.3248 6.20452 16.2633 6.14298C16.2017 6.08145 16.1183 6.04688 16.0312 6.04688C15.9442 6.04688 15.8608 6.08145 15.7992 6.14298C15.7377 6.20452 15.7031 6.28798 15.7031 6.375V6.84375C15.4598 6.91496 15.2461 7.06305 15.094 7.26585C14.942 7.46865 14.8596 7.71525 14.8594 7.96875V8.67188H14.4375C14.3505 8.67192 14.2671 8.70651 14.2055 8.76804C14.144 8.82956 14.1094 8.91299 14.1094 9V10.3125C14.1094 10.3995 14.144 10.4829 14.2055 10.5445C14.2671 10.606 14.3505 10.6406 14.4375 10.6406H14.4844V15.9844H13.8281V15C13.8281 14.913 13.7935 14.8296 13.732 14.768C13.6704 14.7065 13.587 14.6719 13.5 14.6719H13.2656V13.9532C13.2673 13.4175 13.1189 12.8921 12.8372 12.4366C12.5556 11.981 12.1518 11.6134 11.6719 11.3756C11.1988 11.1376 10.7829 10.7998 10.4531 10.3854V9.75C10.4531 9.66298 10.4186 9.57952 10.357 9.51798C10.2955 9.45645 10.212 9.42188 10.125 9.42188C10.038 9.42188 9.95452 9.45645 9.89298 9.51798C9.83145 9.57952 9.79688 9.66298 9.79688 9.75V10.3854C9.46678 10.7999 9.05063 11.1377 8.57719 11.3756C8.0974 11.6136 7.69388 11.9812 7.41235 12.4367C7.13083 12.8923 6.98257 13.4176 6.98438 13.9532V14.6719H6.75C6.66299 14.6719 6.57956 14.7065 6.51804 14.768C6.45651 14.8296 6.42192 14.913 6.42188 15V15.9844H6.375C6.28799 15.9844 6.20456 16.019 6.14304 16.0805C6.08151 16.1421 6.04692 16.2255 6.04688 16.3125V17.625C6.04692 17.712 6.08151 17.7954 6.14304 17.857C6.20456 17.9185 6.28799 17.9531 6.375 17.9531H17.625C17.712 17.9531 17.7954 17.9185 17.857 17.857C17.9185 17.7954 17.9531 17.712 17.9531 17.625V16.3125C17.9531 16.2255 17.9185 16.1421 17.857 16.0805C17.7954 16.019 17.712 15.9844 17.625 15.9844H17.5781V10.6406H17.625ZM15.5156 7.96875C15.5156 7.832 15.57 7.70085 15.6666 7.60415C15.7633 7.50745 15.8945 7.45312 16.0312 7.45312C16.168 7.45312 16.2992 7.50745 16.3959 7.60415C16.4925 7.70085 16.5469 7.832 16.5469 7.96875V8.67188H15.5156V7.96875ZM7.64062 13.9532C7.63909 13.5395 7.75354 13.1338 7.97099 12.7819C8.18844 12.43 8.50017 12.1461 8.87081 11.9625C9.34336 11.7255 9.76844 11.4039 10.125 11.0136C10.4816 11.4039 10.9066 11.7255 11.3792 11.9625C11.7498 12.1461 12.0616 12.43 12.279 12.7819C12.4965 13.1338 12.6109 13.5395 12.6094 13.9532V14.6719H7.64062V13.9532ZM7.07812 15.3281H13.1719V15.9844H7.07812V15.3281ZM17.2969 17.2969H6.70312V16.6406H17.2969V17.2969ZM15.1406 15.9844V10.6406H16.9219V15.9844H15.1406ZM17.2969 9.98438H14.7656V9.32812H17.2969V9.98438Z" fill="white"/>
</g>
<defs>
<clipPath id="clip0_144_4051">
<rect width="12" height="12" fill="white" transform="translate(6 6)"/>
</clipPath>
</defs>
</svg>
