<svg width="35" height="36" viewBox="0 0 35 36" fill="none" xmlns="http://www.w3.org/2000/svg">
<rect y="0.5" width="35" height="35" rx="17.5" fill="#FF8E6F"/>
<g clip-path="url(#clip0_5382_1681)">
<path d="M20.4992 20.625C20.3532 20.6251 20.2103 20.5823 20.0883 20.502L17.0883 18.531C16.9844 18.4626 16.8992 18.3695 16.8402 18.2601C16.7812 18.1507 16.7502 18.0283 16.75 17.904V14.25C16.75 14.0511 16.829 13.8603 16.9697 13.7197C17.1103 13.579 17.3011 13.5 17.5 13.5C17.6989 13.5 17.8897 13.579 18.0303 13.7197C18.171 13.8603 18.25 14.0511 18.25 14.25V17.4998L20.9117 19.248C21.0468 19.3366 21.1496 19.4665 21.2049 19.6182C21.2602 19.77 21.265 19.9355 21.2187 20.0902C21.1723 20.2449 21.0773 20.3806 20.9476 20.4769C20.818 20.5733 20.6608 20.6252 20.4992 20.625ZM18.0355 25.4813C17.8573 25.4939 17.6787 25.5002 17.5 25.5C13.3645 25.5 10 22.1355 10 18C10 13.8645 13.3645 10.5 17.5 10.5C19.8632 10.5 22.084 11.634 23.491 13.5H21.25C21.0511 13.5 20.8603 13.579 20.7197 13.7197C20.579 13.8603 20.5 14.0511 20.5 14.25C20.5 14.4489 20.579 14.6397 20.7197 14.7803C20.8603 14.921 21.0511 15 21.25 15H24.25C25.0772 15 25.75 14.3273 25.75 13.5V10.5C25.75 10.3011 25.671 10.1103 25.5303 9.96967C25.3897 9.82902 25.1989 9.75 25 9.75C24.8011 9.75 24.6103 9.82902 24.4697 9.96967C24.329 10.1103 24.25 10.3011 24.25 10.5V12.078C22.5573 10.1572 20.1047 9 17.5 9C12.5373 9 8.5 13.0373 8.5 18C8.5 22.9628 12.5373 27 17.5 27C17.716 27 17.9298 26.9918 18.142 26.9767C18.2402 26.9698 18.3361 26.9436 18.4242 26.8996C18.5122 26.8555 18.5908 26.7946 18.6553 26.7202C18.7198 26.6458 18.769 26.5594 18.8001 26.466C18.8312 26.3726 18.8435 26.274 18.8365 26.1757C18.8304 26.0772 18.8048 25.9809 18.7611 25.8924C18.7173 25.8039 18.6564 25.725 18.5818 25.6603C18.5072 25.5957 18.4205 25.5465 18.3267 25.5158C18.2329 25.485 18.1339 25.4733 18.0355 25.4813ZM25.75 17.25C25.5511 17.25 25.3603 17.329 25.2197 17.4697C25.079 17.6103 25 17.8011 25 18C25 18.3413 24.9768 18.6847 24.931 19.02C24.9177 19.1176 24.9238 19.2169 24.9488 19.3121C24.9739 19.4074 25.0175 19.4968 25.0771 19.5752C25.1975 19.7336 25.3759 19.8376 25.573 19.8645C25.7701 19.8914 25.9698 19.8388 26.1282 19.7184C26.2866 19.598 26.3906 19.4196 26.4175 19.2225C26.4715 18.8205 26.4993 18.4087 26.4993 18C26.4993 17.8011 26.4202 17.6103 26.2796 17.4697C26.1389 17.329 25.9489 17.25 25.75 17.25ZM25.1027 21.297C25.0165 21.2494 24.9217 21.2194 24.8237 21.2085C24.7258 21.1977 24.6267 21.2063 24.5321 21.2339C24.4376 21.2615 24.3494 21.3076 24.2726 21.3694C24.1959 21.4311 24.1321 21.5075 24.085 21.594C23.9223 21.891 23.737 22.1805 23.5338 22.455C23.4519 22.5668 23.4025 22.699 23.3911 22.8371C23.3797 22.9752 23.4067 23.1137 23.4691 23.2374C23.5315 23.3612 23.6269 23.4652 23.7447 23.5381C23.8625 23.611 23.9982 23.6499 24.1368 23.6505C24.367 23.6505 24.5935 23.5448 24.7413 23.3468C24.9835 23.0175 25.2062 22.6703 25.4012 22.314C25.4486 22.2277 25.4785 22.1329 25.4893 22.035C25.5 21.9371 25.4913 21.8381 25.4637 21.7436C25.4361 21.649 25.3902 21.5609 25.3285 21.4841C25.2668 21.4074 25.1906 21.3435 25.1042 21.2963L25.1027 21.297ZM21.5545 24.312C21.2683 24.4962 20.9699 24.6606 20.6613 24.804C20.5709 24.8448 20.4895 24.9031 20.4218 24.9756C20.3541 25.048 20.3015 25.1332 20.2669 25.2261C20.2323 25.3191 20.2166 25.4179 20.2204 25.517C20.2243 25.6161 20.2478 25.7134 20.2896 25.8033C20.3313 25.8933 20.3905 25.974 20.4636 26.041C20.5368 26.1079 20.6225 26.1596 20.7158 26.1932C20.8091 26.2268 20.9081 26.2416 21.0072 26.2366C21.1062 26.2317 21.2033 26.2072 21.2927 26.1645C21.661 25.9928 22.0225 25.7948 22.3668 25.5728C22.4502 25.5198 22.5224 25.4508 22.5792 25.3698C22.6359 25.2888 22.6761 25.1974 22.6973 25.1009C22.7186 25.0043 22.7206 24.9045 22.7031 24.8071C22.6857 24.7098 22.6491 24.6169 22.5957 24.5337C22.5422 24.4506 22.4727 24.3788 22.3914 24.3226C22.3101 24.2664 22.2184 24.2268 22.1217 24.2061C22.025 24.1854 21.9252 24.184 21.828 24.2021C21.7308 24.2201 21.6381 24.2572 21.5553 24.3113L21.5545 24.312Z" fill="white"/>
</g>
<defs>
<clipPath id="clip0_5382_1681">
<rect width="18" height="18" fill="white" transform="translate(8.5 9)"/>
</clipPath>
</defs>
</svg>
