<svg width="35" height="36" viewBox="0 0 35 36" fill="none" xmlns="http://www.w3.org/2000/svg">
<rect y="0.5" width="35" height="35" rx="17.5" fill="#5C67F7"/>
<path d="M10 14.25H25C25.1989 14.25 25.3897 14.171 25.5303 14.0303C25.671 13.8897 25.75 13.6989 25.75 13.5C25.75 13.3011 25.671 13.1103 25.5303 12.9697C25.3897 12.829 25.1989 12.75 25 12.75H10C9.80109 12.75 9.61032 12.829 9.46967 12.9697C9.32902 13.1103 9.25 13.3011 9.25 13.5C9.25 13.6989 9.32902 13.8897 9.46967 14.0303C9.61032 14.171 9.80109 14.25 10 14.25ZM25 17.25H10C9.80109 17.25 9.61032 17.329 9.46967 17.4697C9.32902 17.6103 9.25 17.8011 9.25 18C9.25 18.1989 9.32902 18.3897 9.46967 18.5303C9.61032 18.671 9.80109 18.75 10 18.75H25C25.1989 18.75 25.3897 18.671 25.5303 18.5303C25.671 18.3897 25.75 18.1989 25.75 18C25.75 17.8011 25.671 17.6103 25.5303 17.4697C25.3897 17.329 25.1989 17.25 25 17.25ZM25 21.75H10C9.80109 21.75 9.61032 21.829 9.46967 21.9697C9.32902 22.1103 9.25 22.3011 9.25 22.5C9.25 22.6989 9.32902 22.8897 9.46967 23.0303C9.61032 23.171 9.80109 23.25 10 23.25H25C25.1989 23.25 25.3897 23.171 25.5303 23.0303C25.671 22.8897 25.75 22.6989 25.75 22.5C25.75 22.3011 25.671 22.1103 25.5303 21.9697C25.3897 21.829 25.1989 21.75 25 21.75Z" fill="white"/>
</svg>
