<svg width="35" height="36" viewBox="0 0 35 36" fill="none" xmlns="http://www.w3.org/2000/svg">
<rect y="0.5" width="35" height="35" rx="17.5" fill="#E354D4"/>
<path d="M10 18C10 18.1989 9.92098 18.3897 9.78033 18.5303C9.63968 18.671 9.44891 18.75 9.25 18.75C9.05109 18.75 8.86032 18.671 8.71967 18.5303C8.57902 18.3897 8.5 18.1989 8.5 18C8.5 13.0373 12.5373 9 17.5 9C19.7166 9.00084 21.8542 9.82302 23.5 11.3077V9.75C23.5 9.55109 23.579 9.36032 23.7197 9.21967C23.8603 9.07902 24.0511 9 24.25 9C24.4489 9 24.6397 9.07902 24.7803 9.21967C24.921 9.36032 25 9.55109 25 9.75V12.375C25 13.4085 24.1593 14.25 23.125 14.25H20.5C20.3011 14.25 20.1103 14.171 19.9697 14.0303C19.829 13.8897 19.75 13.6989 19.75 13.5C19.75 13.3011 19.829 13.1103 19.9697 12.9697C20.1103 12.829 20.3011 12.75 20.5 12.75H22.8445C22.1486 12.0376 21.3173 11.4716 20.3995 11.0852C19.4817 10.6988 18.4958 10.4998 17.5 10.5C13.3645 10.5 10 13.8645 10 18ZM25.75 17.25C25.5511 17.25 25.3603 17.329 25.2197 17.4697C25.079 17.6103 25 17.8011 25 18C25 22.1355 21.6355 25.5 17.5 25.5C16.504 25.5001 15.5181 25.3011 14.6002 24.9147C13.6822 24.5283 12.8508 23.9623 12.1548 23.25H14.5C14.6989 23.25 14.8897 23.171 15.0303 23.0303C15.171 22.8897 15.25 22.6989 15.25 22.5C15.25 22.3011 15.171 22.1103 15.0303 21.9697C14.8897 21.829 14.6989 21.75 14.5 21.75H11.875C11.3779 21.7506 10.9013 21.9483 10.5498 22.2998C10.1983 22.6513 10.0006 23.1279 10 23.625V26.25C10 26.4489 10.079 26.6397 10.2197 26.7803C10.3603 26.921 10.5511 27 10.75 27C10.9489 27 11.1397 26.921 11.2803 26.7803C11.421 26.6397 11.5 26.4489 11.5 26.25V24.6923C13.1457 26.1772 15.2834 26.9994 17.5 27C22.4628 27 26.5 22.9628 26.5 18C26.5 17.8011 26.421 17.6103 26.2803 17.4697C26.1397 17.329 25.9489 17.25 25.75 17.25ZM21.772 16.3995L21.0415 16.821C21.166 17.1938 21.25 17.5852 21.25 18C21.25 18.4148 21.1667 18.8062 21.0415 19.179L21.772 19.6005C21.9156 19.6827 22.028 19.8101 22.0915 19.9629C22.1551 20.1157 22.1663 20.2852 22.1234 20.445C22.0805 20.6049 21.9859 20.746 21.8543 20.8464C21.7228 20.9468 21.5617 21.0008 21.3962 21C21.2648 21.0001 21.1357 20.9655 21.022 20.8995L20.2922 20.478C19.7594 21.0877 19.0425 21.5073 18.25 21.6735V22.4993C18.25 22.6982 18.171 22.8889 18.0303 23.0296C17.8897 23.1702 17.6989 23.2493 17.5 23.2493C17.3011 23.2493 17.1103 23.1702 16.9697 23.0296C16.829 22.8889 16.75 22.6982 16.75 22.4993V21.6735C15.9577 21.5067 15.241 21.0872 14.7078 20.478L13.978 20.8995C13.8928 20.949 13.7986 20.9812 13.7009 20.9943C13.6032 21.0073 13.5039 21.0008 13.4087 20.9753C13.3134 20.9498 13.2242 20.9057 13.1461 20.8456C13.068 20.7855 13.0025 20.7105 12.9535 20.625C12.854 20.4527 12.8271 20.248 12.8786 20.0559C12.9301 19.8638 13.0557 19.7 13.228 19.6005L13.9585 19.179C13.834 18.8062 13.75 18.4148 13.75 18C13.75 17.5852 13.8333 17.1938 13.9585 16.821L13.228 16.3995C13.0571 16.2993 12.9328 16.1357 12.8822 15.9442C12.8316 15.7527 12.8588 15.549 12.9578 15.3775C13.0568 15.206 13.2197 15.0806 13.4108 15.0287C13.6019 14.9768 13.8058 15.0026 13.978 15.1005L14.7078 15.522C15.2406 14.9123 15.9575 14.4927 16.75 14.3265V13.5008C16.75 13.3018 16.829 13.1111 16.9697 12.9704C17.1103 12.8298 17.3011 12.7508 17.5 12.7508C17.6989 12.7508 17.8897 12.8298 18.0303 12.9704C18.171 13.1111 18.25 13.3018 18.25 13.5008V14.3265C19.0423 14.4933 19.759 14.9128 20.2922 15.522L21.022 15.1005C21.1073 15.0505 21.2017 15.0178 21.2997 15.0044C21.3977 14.991 21.4974 14.9971 21.593 15.0224C21.6886 15.0477 21.7783 15.0917 21.8569 15.1517C21.9355 15.2118 22.0014 15.2868 22.0508 15.3725C22.1003 15.4582 22.1323 15.5528 22.1451 15.6508C22.1578 15.7489 22.151 15.8486 22.1251 15.944C22.0992 16.0395 22.0547 16.1289 21.9941 16.207C21.9334 16.2852 21.858 16.3506 21.772 16.3995ZM19.75 18C19.75 16.7595 18.7405 15.75 17.5 15.75C16.2595 15.75 15.25 16.7595 15.25 18C15.25 19.2405 16.2595 20.25 17.5 20.25C18.7405 20.25 19.75 19.2405 19.75 18Z" fill="white"/>
</svg>
