<svg width="35" height="36" viewBox="0 0 35 36" fill="none" xmlns="http://www.w3.org/2000/svg">
<rect y="0.5" width="35" height="35" rx="17.5" fill="#FF5D9F"/>
<g clip-path="url(#clip0_5382_1691)">
<path d="M17.5 9C12.5373 9 8.5 13.0373 8.5 18C8.5 22.9628 12.5373 27 17.5 27H26.5V18C26.5 13.0373 22.4628 9 17.5 9ZM25 25.5H17.5C13.3645 25.5 10 22.1355 10 18C10 13.8645 13.3645 10.5 17.5 10.5C21.6355 10.5 25 13.8645 25 18V25.5ZM20.8428 15.7177L18.5605 18L20.8428 20.2823L19.7823 21.3428L17.5 19.0605L15.2177 21.3428L14.1573 20.2823L16.4395 18L14.1573 15.7177L15.2177 14.6573L17.5 16.9395L19.7823 14.6573L20.8428 15.7177Z" fill="white"/>
</g>
<defs>
<clipPath id="clip0_5382_1691">
<rect width="18" height="18" fill="white" transform="translate(8.5 9)"/>
</clipPath>
</defs>
</svg>
