<svg width="35" height="36" viewBox="0 0 35 36" fill="none" xmlns="http://www.w3.org/2000/svg">
<rect y="0.5" width="35" height="35" rx="17.5" fill="#5C67F7"/>
<g clip-path="url(#clip0_5382_1660)">
<path d="M17.461 27.0068L17.1955 26.8891C16.9 26.7593 10 23.6431 10 18.0001V13.1071C10.0003 12.6362 10.1491 12.1774 10.4253 11.7961C10.7015 11.4147 11.091 11.1302 11.5383 10.9831L17.5 9.00684L23.4618 10.9831C23.909 11.1302 24.2985 11.4147 24.5747 11.7961C24.8509 12.1774 24.9997 12.6362 25 13.1071V18.0001C25 24.4328 18.034 26.8163 17.737 26.9153L17.461 27.0068ZM17.5 10.5796L12.013 12.3991C11.8637 12.4478 11.7337 12.5426 11.6415 12.6698C11.5494 12.797 11.4998 12.95 11.5 13.1071V18.0001C11.5 22.1206 16.33 24.7936 17.5353 25.3958C18.7383 24.9121 23.5 22.6973 23.5 18.0001V13.1071C23.5002 12.95 23.4506 12.797 23.3585 12.6698C23.2663 12.5426 23.1363 12.4478 22.987 12.3991L17.5 10.5796Z" fill="white"/>
<path d="M16.8333 19.9065H16.8086C16.6187 19.9036 16.4315 19.8622 16.2581 19.7849C16.0847 19.7075 15.9288 19.5958 15.7998 19.4565L14.0703 17.6565L15.1511 16.62L16.8341 18.375L20.7198 14.4893L21.7803 15.5498L17.8346 19.4955C17.7031 19.6268 17.547 19.7308 17.3751 19.8013C17.2032 19.8719 17.0191 19.9076 16.8333 19.9065Z" fill="white"/>
</g>
<defs>
<clipPath id="clip0_5382_1660">
<rect width="18" height="18" fill="white" transform="translate(8.5 9)"/>
</clipPath>
</defs>
</svg>
