<svg width="35" height="36" viewBox="0 0 35 36" fill="none" xmlns="http://www.w3.org/2000/svg">
<rect y="0.5" width="35" height="35" rx="17.5" fill="#30AA4A"/>
<path d="M15.512 25.7109C15.2055 25.7116 14.9028 25.6435 14.6263 25.5116C14.3497 25.3797 14.1062 25.1873 13.9139 24.9487L10.1013 20.2782C9.7518 19.8498 9.57719 19.3051 9.61251 18.7534C9.64783 18.2017 9.89047 17.6837 10.2918 17.3035C10.693 16.9232 11.2233 16.7087 11.7761 16.703C12.3289 16.6974 12.8634 16.901 13.2724 17.273L15.6637 19.4491L23.4144 10.6918C23.5109 10.5754 23.6302 10.4798 23.765 10.4109C23.8997 10.3421 24.047 10.3014 24.198 10.2915C24.349 10.2815 24.5004 10.3024 24.643 10.353C24.7856 10.4035 24.9165 10.4826 25.0275 10.5854C25.4125 10.9419 25.5066 11.5403 25.2427 11.9498L17.3224 24.7056C17.3211 24.7077 17.3197 24.7099 17.3184 24.7119C16.9302 25.308 16.3135 25.671 15.6264 25.7079C15.5881 25.7099 15.55 25.7109 15.512 25.7109ZM11.7978 17.3922C11.5144 17.393 11.237 17.474 10.9977 17.6259C10.7584 17.7778 10.567 17.9943 10.4456 18.2504C10.3243 18.5065 10.2779 18.7918 10.3119 19.0731C10.3458 19.3545 10.4588 19.6205 10.6376 19.8404L14.4504 24.5111C14.5864 24.6798 14.7606 24.8137 14.9587 24.9016C15.1568 24.9895 15.3729 25.0289 15.5893 25.0165C16.0521 24.9916 16.4699 24.7441 16.7363 24.337L24.6563 11.5819L24.6603 11.5756C24.7346 11.4613 24.7105 11.2354 24.5572 11.0934C24.515 11.0543 24.4653 11.0244 24.4112 11.0053C24.357 10.9862 24.2995 10.9784 24.2423 10.9824C24.185 10.9863 24.1291 11.002 24.0781 11.0284C24.0271 11.0547 23.982 11.0913 23.9457 11.1357C23.9428 11.1392 23.9399 11.1426 23.9369 11.1461L15.9495 20.1707C15.9191 20.205 15.8822 20.233 15.8409 20.2529C15.7996 20.2729 15.7548 20.2845 15.709 20.2869C15.6632 20.2894 15.6174 20.2828 15.5742 20.2674C15.531 20.252 15.4912 20.2282 15.4573 20.1973L12.8064 17.785C12.5311 17.5326 12.1713 17.3925 11.7978 17.3922Z" fill="white"/>
</svg>
