<svg width="34" height="40" viewBox="0 0 34 40" fill="none" xmlns="http://www.w3.org/2000/svg">
<g clip-path="url(#clip0_3447_269)">
<path d="M6.75372 32.329C5.83415 32.329 5.83415 30.9301 6.75372 30.9301H14.7867C14.7711 31.1608 14.7625 31.3938 14.7625 31.6292C14.7625 31.8646 14.7711 32.0976 14.7867 32.329H6.75372ZM9.5148 19.2634H8.1714V20.8242H6.10549V14.366H9.35997C10.841 14.366 11.5815 15.1613 11.5815 16.7526C11.5815 17.6276 11.3884 18.275 11.0029 18.6949C10.8582 18.8537 10.658 18.9882 10.4039 19.0984C10.149 19.2087 9.8526 19.2634 9.5148 19.2634ZM8.1714 16.0191V17.6104H8.64683C8.89471 17.6104 9.07612 17.5845 9.18951 17.5329C9.30289 17.4813 9.35997 17.3625 9.35997 17.1764V16.4531C9.35997 16.267 9.30289 16.1481 9.18951 16.0965C9.07612 16.0449 8.89471 16.0191 8.64683 16.0191H8.1714ZM12.3564 20.8242V14.366H15.2496C16.414 14.366 17.2131 14.6139 17.6471 15.1097C18.0811 15.6054 18.2977 16.4343 18.2977 17.5947C18.2977 18.7559 18.0811 19.584 17.6471 20.0798C17.2131 20.5755 16.414 20.8242 15.2496 20.8242H12.3564ZM15.2809 16.0191H14.4231V19.1703H15.2809C15.5632 19.1703 15.7681 19.1383 15.8955 19.0726C16.023 19.0069 16.0863 18.8576 16.0863 18.623V16.5664C16.0863 16.3326 16.023 16.1825 15.8955 16.1176C15.7681 16.0519 15.5632 16.0191 15.2809 16.0191ZM22.9996 18.4267H21.2425V20.8242H19.1758V14.366H23.4124L23.1544 16.0191H21.2425V16.887H22.9996V18.4267ZM20.7851 1.89702V4.1725C20.7851 9.3068 21.9823 9.60472 26.1868 9.60472H27.9095L20.7851 1.89702ZM28.1612 10.9614H26.4816C21.7101 10.9614 19.4284 10.6416 19.4284 4.21472V1.35669H4.44305C2.74622 1.35669 1.35669 2.747 1.35669 4.44305V25.1484H17.1404C16.7776 25.5761 16.4499 26.0351 16.1622 26.5199H1.35669V33.5442C1.35669 35.2348 2.75247 36.6306 4.44305 36.6306H16.0973C16.3733 37.1091 16.6884 37.5627 17.0372 37.9865H4.44305C2.00414 37.9865 0 35.9831 0 33.5442V4.44305C0 1.99789 1.99789 2.93935e-08 4.44305 2.93935e-08H20.5771C20.6821 -3.08813e-05 20.7857 0.0243182 20.8798 0.0711308C20.9738 0.117943 21.0557 0.185942 21.119 0.269774L29.3349 9.15901C29.5062 9.34433 29.5179 9.5234 29.5179 9.74704V22.7947C29.0839 22.5617 28.6304 22.3599 28.1612 22.1918V10.9614Z" fill="#262626"/>
<path fill-rule="evenodd" clip-rule="evenodd" d="M24.7839 23.2593C29.4068 23.2593 33.1547 27.0072 33.1547 31.6301C33.1547 36.2522 29.4068 40.0001 24.7839 40.0001C20.161 40.0001 16.4131 36.2522 16.4131 31.6301C16.4131 27.0072 20.161 23.2593 24.7839 23.2593Z" fill="#FF0000"/>
<path d="M26.4222 27.8797L26.1274 31.6135L27.4841 31.1389C28.381 30.7948 29.3037 31.4298 28.6086 32.2195C27.7625 33.1931 26.477 34.5302 25.5418 35.4209C24.9608 36.0011 24.6245 36.0065 24.042 35.4256C23.0067 34.409 21.9901 33.2799 20.9783 32.2297C20.255 31.4431 21.1581 30.7792 22.0949 31.1389L23.4367 31.6088C23.339 30.3358 23.2162 29.1191 23.1419 27.8477C23.1419 27.6138 23.3374 27.4262 23.5658 27.409C24.372 27.409 25.1954 27.3902 25.9992 27.409C26.2275 27.4262 26.423 27.6138 26.423 27.8477L26.4222 27.8797Z" fill="white"/>
</g>
<defs>
<clipPath id="clip0_3447_269">
<rect width="33.1548" height="40" fill="white"/>
</clipPath>
</defs>
</svg>
