<svg width="36" height="36" viewBox="0 0 36 36" fill="none" xmlns="http://www.w3.org/2000/svg">
<mask id="mask0_3447_279" style="mask-type:alpha" maskUnits="userSpaceOnUse" x="6" y="6" width="24" height="24">
<rect x="6" y="6" width="24" height="24" fill="#D9D9D9"/>
</mask>
<g mask="url(#mask0_3447_279)">
<path d="M12.5 25C11.25 25 10.1873 24.5667 9.312 23.7C8.43733 22.8334 8 21.775 8 20.525C8 19.375 8.39167 18.354 9.175 17.462C9.95833 16.5707 10.9333 16.0917 12.1 16.025C12.2667 14.7917 12.8877 13.654 13.963 12.612C15.0377 11.5707 16.2167 11.05 17.5 11.05C17.7667 11.05 18 11.15 18.2 11.35C18.4 11.55 18.5 11.7834 18.5 12.05V19.35L20.55 17.3L21.275 18L18 21.275L14.725 18L15.45 17.3L17.5 19.35V12.05C16.25 12.1167 15.1873 12.6667 14.312 13.7C13.4373 14.7334 13 15.8334 13 17H12.5C11.5333 17 10.7083 17.3417 10.025 18.025C9.34167 18.7084 9 19.5334 9 20.5C9 21.4667 9.34167 22.2917 10.025 22.975C10.7083 23.6584 11.5333 24 12.5 24H24.5C25.2 24 25.7917 23.7584 26.275 23.275C26.7583 22.7917 27 22.2 27 21.5C27 20.8 26.7583 20.2084 26.275 19.725C25.7917 19.2417 25.2 19 24.5 19H23V17C23 16.1667 22.8167 15.4044 22.45 14.713C22.0833 14.021 21.6 13.45 21 13V11.8C21.9333 12.3334 22.6667 13.0624 23.2 13.987C23.7333 14.9124 24 15.9167 24 17V18H24.625C25.575 18.0334 26.375 18.3874 27.025 19.062C27.675 19.7374 28 20.55 28 21.5C28 22.4834 27.6627 23.3127 26.988 23.988C26.3127 24.6627 25.4833 25 24.5 25H12.5Z" fill="#818181"/>
</g>
</svg>
