<svg width="18" height="18" viewBox="0 0 18 18" fill="none" xmlns="http://www.w3.org/2000/svg">
<path d="M17.0282 16.875H0.595703V1.5C0.595703 1.40054 0.635212 1.30516 0.705538 1.23483C0.775864 1.16451 0.871247 1.125 0.970703 1.125C1.07016 1.125 1.16554 1.16451 1.23587 1.23483C1.30619 1.30516 1.3457 1.40054 1.3457 1.5V16.125H17.0282C17.1277 16.125 17.223 16.1645 17.2934 16.2348C17.3637 16.3052 17.4032 16.4005 17.4032 16.5C17.4032 16.5995 17.3637 16.6948 17.2934 16.7652C17.223 16.8355 17.1277 16.875 17.0282 16.875Z" fill="white" fill-opacity="0.7"/>
<path d="M15.9152 15.5738H11.974V4.9425H15.9152V15.5738ZM12.724 14.8238H15.1652V5.6925H12.724V14.8238ZM11.1265 15.5738H7.18148V7.6575H11.1265V15.5738ZM7.93148 14.8238H10.3765V8.4075H7.93148V14.8238ZM6.33773 15.5738H2.39648V10.7513H6.33773V15.5738ZM3.14648 14.8238H5.58773V11.5013H3.14648V14.8238Z" fill="white" fill-opacity="0.7"/>
<path d="M2.24889 9.99745C2.1677 9.99806 2.08851 9.9723 2.02322 9.92405C1.95792 9.87579 1.91005 9.80765 1.8868 9.72986C1.86355 9.65207 1.86617 9.56884 1.89427 9.49267C1.92237 9.4165 1.97444 9.3515 2.04264 9.30745L13.5776 1.75495C13.6427 1.71198 13.7196 1.69036 13.7975 1.6931C13.8754 1.69585 13.9506 1.72282 14.0125 1.77027C14.0744 1.81772 14.1199 1.88328 14.1428 1.95783C14.1657 2.03238 14.1647 2.11221 14.1401 2.1862L13.4989 4.2112C13.4681 4.30619 13.4008 4.38503 13.3118 4.43039C13.2228 4.47575 13.1195 4.48391 13.0245 4.45308C12.9295 4.42225 12.8507 4.35495 12.8053 4.26599C12.76 4.17702 12.7518 4.07369 12.7826 3.9787L13.1126 2.9662L2.43264 9.93745C2.37769 9.97317 2.31433 9.99386 2.24889 9.99745Z" fill="white" fill-opacity="0.7"/>
<path d="M13.7851 2.44504H13.7326L11.7226 2.16379C11.6735 2.15734 11.6262 2.14123 11.5834 2.11639C11.5405 2.09156 11.5031 2.05849 11.4731 2.0191C11.4431 1.9797 11.4212 1.93476 11.4087 1.88687C11.3962 1.83897 11.3932 1.78907 11.4001 1.74004C11.414 1.64159 11.4665 1.5527 11.546 1.49292C11.6254 1.43315 11.7254 1.40738 11.8239 1.42129L13.8376 1.70254C13.9371 1.7095 14.0297 1.75569 14.0951 1.83094C14.1605 1.90619 14.1933 2.00433 14.1864 2.10379C14.1794 2.20325 14.1332 2.29586 14.058 2.36127C13.9827 2.42667 13.8846 2.4595 13.7851 2.45254V2.44504Z" fill="white" fill-opacity="0.7"/>
</svg>
