<svg width="18" height="18" viewBox="0 0 18 18" fill="none" xmlns="http://www.w3.org/2000/svg">
<path d="M15.7234 2.38552H14.2053V0.867479C14.2053 0.390339 13.8149 0 13.338 0H2.2776C1.8005 0 1.41016 0.390339 1.41016 0.867479V14.747C1.41016 15.2241 1.8005 15.6144 2.27764 15.6144H3.79571V17.1325C3.79571 17.6096 4.18588 18 4.66319 18H12.0365C12.5134 18 13.1883 17.7324 13.5355 17.4056L15.9587 15.1246C16.3064 14.7978 16.5905 14.1398 16.5905 13.6627L16.5909 3.25307C16.5908 2.7759 16.2005 2.38552 15.7234 2.38552ZM3.79564 3.25304V14.9638H2.2776C2.16007 14.9638 2.06076 14.8645 2.06076 14.747V0.867479C2.06076 0.749952 2.16007 0.650635 2.2776 0.650635H13.3381C13.4554 0.650635 13.5549 0.749952 13.5549 0.867479V2.38556H4.66312C4.18581 2.38556 3.79564 2.7759 3.79564 3.25304ZM15.5128 14.6509L13.0895 16.9317C13.0399 16.9784 12.9752 17.0241 12.9039 17.0677V15.0723C12.9039 14.9233 12.964 14.7892 13.0631 14.6895C13.163 14.5904 13.2971 14.5301 13.446 14.5301H15.6158C15.5822 14.5758 15.5477 14.6179 15.5128 14.6509ZM15.9398 13.6626C15.9398 13.727 15.928 13.8016 15.9103 13.8794H13.446C12.7879 13.8807 12.2546 14.414 12.2532 15.0722V17.3231C12.1758 17.3387 12.1012 17.3493 12.0364 17.3493H4.66312V17.3493C4.54535 17.3493 4.44628 17.25 4.44628 17.1325V3.253C4.44628 3.13547 4.54538 3.03616 4.66312 3.03616H15.7233C15.8409 3.03616 15.9402 3.13547 15.9402 3.253L15.9398 13.6626Z" fill="white"/>
<path d="M13.3371 5.42163H7.04796C7.00523 5.42161 6.96292 5.43001 6.92344 5.44635C6.88396 5.46269 6.84809 5.48665 6.81788 5.51686C6.78767 5.54707 6.76371 5.58294 6.74737 5.62242C6.73103 5.66189 6.72263 5.70421 6.72266 5.74693C6.72264 5.78966 6.73104 5.83196 6.74738 5.87144C6.76372 5.91092 6.78768 5.94678 6.81789 5.977C6.8481 6.00721 6.88397 6.03117 6.92345 6.04751C6.96292 6.06385 7.00523 6.07225 7.04796 6.07223H13.3371C13.5167 6.07223 13.6624 5.92672 13.6624 5.74693C13.6624 5.56714 13.5167 5.42163 13.3371 5.42163ZM13.3371 9.759H7.04796C7.00523 9.75897 6.96292 9.76737 6.92344 9.78371C6.88396 9.80005 6.84809 9.82401 6.81788 9.85422C6.78767 9.88444 6.76371 9.92031 6.74737 9.95978C6.73103 9.99926 6.72263 10.0416 6.72266 10.0843C6.72264 10.127 6.73104 10.1693 6.74738 10.2088C6.76372 10.2483 6.78768 10.2842 6.81789 10.3144C6.8481 10.3446 6.88397 10.3685 6.92345 10.3849C6.96292 10.4012 7.00523 10.4096 7.04796 10.4096H13.3371C13.3798 10.4096 13.4221 10.4012 13.4616 10.3848C13.5011 10.3685 13.5369 10.3445 13.5671 10.3143C13.5973 10.2841 13.6213 10.2483 13.6376 10.2088C13.654 10.1693 13.6624 10.127 13.6624 10.0843C13.6624 10.0416 13.654 9.99927 13.6377 9.9598C13.6213 9.92033 13.5973 9.88446 13.5671 9.85426C13.5369 9.82405 13.5011 9.80009 13.4616 9.78374C13.4221 9.7674 13.3798 9.75899 13.3371 9.759ZM10.5178 11.9277H7.04799C6.8682 11.9277 6.72269 12.0732 6.72269 12.253C6.72269 12.4328 6.8682 12.5783 7.04799 12.5783H10.5178C10.6974 12.5783 10.8429 12.4328 10.8429 12.253C10.8429 12.0732 10.6974 11.9277 10.5178 11.9277ZM13.3371 7.59031H7.04796C6.86817 7.59031 6.72266 7.73583 6.72266 7.91562C6.72266 8.0954 6.8682 8.24092 7.04796 8.24092H13.3371C13.5167 8.24092 13.6624 8.0954 13.6624 7.91562C13.6624 7.73583 13.5167 7.59031 13.3371 7.59031Z" fill="white"/>
</svg>
