<svg width="18" height="18" viewBox="0 0 18 18" fill="none" xmlns="http://www.w3.org/2000/svg">
<g clip-path="url(#clip0_5318_631)">
<path d="M16.125 0H5.625C5.1279 0.000595447 4.65133 0.198331 4.29983 0.549832C3.94833 0.901334 3.7506 1.3779 3.75 1.875V5.25H0V15.75C0 16.9905 1.0095 18 2.25 18H15.75C16.9905 18 18 16.9905 18 15.75V1.875C18 0.8415 17.1585 0 16.125 0ZM3.75 15.75C3.75 16.5772 3.07725 17.25 2.25 17.25C1.42275 17.25 0.75 16.5772 0.75 15.75V6H3.75V15.75ZM17.25 15.75C17.25 16.5772 16.5772 17.25 15.75 17.25H3.9255C4.29583 16.8382 4.50049 16.3038 4.5 15.75V1.875C4.5 1.25475 5.00475 0.75 5.625 0.75H16.125C16.7453 0.75 17.25 1.25475 17.25 1.875V15.75ZM11.25 5.25H15.75V6H11.25V5.25ZM6 8.25H15.75V9H6V8.25ZM6 11.25H15.75V12H6V11.25ZM6 14.25H15.75V15H6V14.25ZM9.75 2.25H6V6H9.75V2.25ZM9 5.25H6.75V3H9V5.25Z" fill="white" fill-opacity="0.7"/>
</g>
<defs>
<clipPath id="clip0_5318_631">
<rect width="18" height="18" fill="white"/>
</clipPath>
</defs>
</svg>
