<svg width="18" height="18" viewBox="0 0 18 18" fill="none" xmlns="http://www.w3.org/2000/svg">
<path d="M5.0625 18H12.9375C13.3103 17.9996 13.6677 17.8513 13.9314 17.5876C14.195 17.324 14.3433 16.9666 14.3438 16.5938V1.40625C14.3433 1.03343 14.195 0.676001 13.9314 0.412374C13.6677 0.148748 13.3103 0.000446585 12.9375 0L5.0625 0C4.68968 0.000446585 4.33225 0.148748 4.06862 0.412374C3.805 0.676001 3.6567 1.03343 3.65625 1.40625V16.5938C3.6567 16.9666 3.805 17.324 4.06862 17.5876C4.33225 17.8513 4.68968 17.9996 5.0625 18ZM12.9375 17.4375H5.0625C4.83879 17.4373 4.62431 17.3483 4.46613 17.1901C4.30794 17.0319 4.21897 16.8175 4.21875 16.5938V16.3125H13.7812V16.5938C13.781 16.8175 13.6921 17.0319 13.5339 17.1901C13.3757 17.3483 13.1612 17.4373 12.9375 17.4375ZM9.95119 0.5625L9.66994 1.125H8.33006L8.04881 0.5625H9.95119ZM5.0625 0.5625H7.41994L7.90453 1.53197C7.92789 1.57872 7.96382 1.61804 8.00828 1.64551C8.05275 1.67298 8.10398 1.68752 8.15625 1.6875H9.84375C9.89597 1.68747 9.94715 1.67291 9.99155 1.64544C10.036 1.61797 10.0718 1.57868 10.0952 1.53197L10.5801 0.5625H12.9375C13.1612 0.562723 13.3757 0.65169 13.5339 0.809875C13.6921 0.968061 13.781 1.18254 13.7812 1.40625V15.75H4.21875V1.40625C4.21897 1.18254 4.30794 0.968061 4.46613 0.809875C4.62431 0.65169 4.83879 0.562723 5.0625 0.5625Z" fill="white" fill-opacity="0.7"/>
<path d="M6.1875 14.3438C6.1875 14.4183 6.21713 14.4899 6.26988 14.5426C6.32262 14.5954 6.39416 14.625 6.46875 14.625H11.5312C11.6058 14.625 11.6774 14.5954 11.7301 14.5426C11.7829 14.4899 11.8125 14.4183 11.8125 14.3438V9.38701C12.164 8.92416 12.3608 8.36237 12.375 7.78135C12.375 6.29973 10.8205 5.52235 9.89156 5.05745C9.77344 4.99838 9.64125 4.93257 9.52819 4.87154C9.62626 4.79326 9.70551 4.69397 9.76013 4.581C9.81474 4.46802 9.84332 4.34424 9.84375 4.21876C9.84375 4.14417 9.81412 4.07263 9.76137 4.01988C9.70863 3.96714 9.63709 3.93751 9.5625 3.93751C9.48791 3.93751 9.41637 3.96714 9.36363 4.01988C9.31088 4.07263 9.28125 4.14417 9.28125 4.21876C9.28125 4.27438 9.26476 4.32876 9.23385 4.37501C9.20295 4.42126 9.15902 4.45731 9.10763 4.4786C9.05624 4.49989 8.99969 4.50546 8.94513 4.4946C8.89057 4.48375 8.84046 4.45696 8.80113 4.41763C8.76179 4.3783 8.73501 4.32818 8.72415 4.27363C8.7133 4.21907 8.71887 4.16252 8.74016 4.11113C8.76145 4.05974 8.79749 4.01581 8.84375 3.98491C8.89 3.954 8.94437 3.93751 9 3.93751C9.07459 3.93751 9.14613 3.90788 9.19887 3.85513C9.25162 3.80239 9.28125 3.73085 9.28125 3.65626C9.28125 3.58167 9.25162 3.51013 9.19887 3.45738C9.14613 3.40464 9.07459 3.37501 9 3.37501C8.82559 3.37426 8.65528 3.42782 8.51268 3.52824C8.37009 3.62867 8.26229 3.77098 8.20423 3.93545C8.14617 4.09991 8.14074 4.27836 8.18869 4.44605C8.23664 4.61374 8.33559 4.76235 8.47181 4.87126C8.35847 4.93257 8.22684 4.99838 8.10844 5.05745C7.17947 5.52235 5.625 6.30001 5.625 7.78135C5.6392 8.36237 5.836 8.92416 6.1875 9.38701V14.3438ZM9.5625 14.0625H8.4375V12.375C8.4375 12.2258 8.49676 12.0827 8.60225 11.9773C8.70774 11.8718 8.85082 11.8125 9 11.8125C9.14918 11.8125 9.29226 11.8718 9.39775 11.9773C9.50324 12.0827 9.5625 12.2258 9.5625 12.375V14.0625ZM10.125 14.0625V12.375C10.125 12.0766 10.0065 11.7905 9.7955 11.5795C9.58452 11.3685 9.29837 11.25 9 11.25C8.70163 11.25 8.41548 11.3685 8.2045 11.5795C7.99353 11.7905 7.875 12.0766 7.875 12.375V14.0625H6.75V9.56251H11.25V14.0625H10.125ZM8.36016 5.5606C8.58113 5.458 8.7949 5.34054 9 5.20904C9.2051 5.34054 9.41887 5.458 9.63984 5.5606C10.5053 5.99373 11.8125 6.64763 11.8125 7.78163C11.7999 8.22001 11.6559 8.64449 11.3991 9.00001H6.60094C6.34409 8.64441 6.20004 8.21983 6.1875 7.78135C6.1875 6.64763 7.49475 5.99345 8.36016 5.5606Z" fill="white" fill-opacity="0.7"/>
</svg>
